<svg xmlns="http://www.w3.org/2000/svg" viewBox="0 0 282.3 226.81"><defs><style>.cls-1{fill:#fff;}</style></defs><g id="Layer_2" data-name="Layer 2"><g id="Layer_1-2" data-name="Layer 1"><path class="cls-1" d="M231.65,84.41c10.32-.19,20.67-.06,30.14,4.92C276,96.84,282.89,109,282.26,124.8c-.61,15.48-7.89,27.33-22.29,34-8,3.66-16.17,3.3-23-2.42-10.43-8.75-20.4-18.08-30.35-27.4-1.07-1-1.34-3.73-.88-5.35a40.91,40.91,0,0,0,.1-21.6c-.63-2.52.82-5.58,1.36-8.38,1.57-8.15,7.73-9.12,14.44-9.18C225,84.39,228.32,84.41,231.65,84.41Z"/><path class="cls-1" d="M105.41,130.92c12-9.56,15.77-27.18,1.23-41.66,3.73-.85,7-1.66,10.29-2.32,6.17-1.26,12.32-2.66,18.54-3.59,15.33-2.31,23.35,6,27.4,17.62,3.66,10.57,2.4,20.93-4.32,30.32-4.82,6.73-11.21,10.16-19.35,8.35C128.25,137.2,117.45,134.06,105.41,130.92Z"/><path class="cls-1" d="M73.21,95.79C59.15,84.45,48,71.3,48.12,51.57a29.93,29.93,0,0,1,1.2-7.85c1.66-5.81,6.82-8.6,12.43-6.33,15.31,6.22,22.91,18.91,27.53,33.9a28.82,28.82,0,0,1,1,5.37c.94,8.47.7,8.5-6.75,12.2C80.09,90.6,77,93.2,73.21,95.79Z"/><path class="cls-1" d="M159.71,140.67c17.14-18.42,14.28-43.81-.19-57.75,10.36,3,20.89,5.48,31,9.07,6.41,2.27,9.45,8.41,10.7,14.76,1.41,7.2.69,14.51-4.07,20.44-2.35,2.93-5.7,5.92-9.17,6.94C178.74,136.87,169.16,138.56,159.71,140.67Z"/><path class="cls-1" d="M82,132.35c-3.7,12.76-19.06,25.76-35.27,27.29-10,.94-16.9-8.27-12.32-17.41,6.86-13.65,18.77-21.15,33.34-24.59a5.7,5.7,0,0,1,4.73,1.61C75.54,122.94,78.16,127,82,132.35Z"/><path class="cls-1" d="M28.37,142.33c-15.51-31.35-20.19-63.1-1-94.74C39.51,27.51,58.45,16.46,81.26,12.47c41.46-7.24,83.25,20.31,95,62.21a3.32,3.32,0,0,1,.07,1.06c-4.43-6.88-8.64-14.29-13.68-21.09-22.48-30.34-64.14-44-99.77-32.06A62.54,62.54,0,0,0,25.15,56.2c-11,23.29-9.53,46.76-.78,70.28,1.34,3.58,2.91,7.08,4.25,10.67a47.21,47.21,0,0,1,1.3,5Z"/><path class="cls-1" d="M110.33,109.9c0,9.77-7.19,18-15.63,17.78-7.94-.17-19.5-7.76-18.92-19.26.49-9.56,8.58-16.94,19.58-17C103.31,91.44,110.34,100.1,110.33,109.9Z"/><path class="cls-1" d="M208.81,158.68l-21-20.33c5.09-3.67,9.5-2.08,11.63,2.44C202.08,146.41,205.18,151.81,208.81,158.68Z"/><path class="cls-1" d="M207,200.51a71.29,71.29,0,0,0-7.74,4.17A11.46,11.46,0,0,1,196,206a141.53,141.53,0,0,1-65.64,3.89c-31-5.22-57.3-19.77-79.47-42-1.85-1.85-4.25-3.16-6.4-4.72l-.73,1.05c19.52,21.72,42.78,37.57,71.33,45.08s56.72,5.67,85-2.14a8.15,8.15,0,0,1-3.87,3.13,126.89,126.89,0,0,1-70.59,6.49C77,207.52,40.62,181.1,19.05,135.93,7.54,111.84,5.17,86.46,14.26,61.18,25.35,30.32,48.6,13,80.25,6.53c25.91-5.26,50.49-.45,74,11.1,21.43,10.55,37.59,26.53,49,47.36-.93-1.94-1.79-3.92-2.81-5.81s-2.13-3.76-3.28-5.59C177,21.57,147.08,4.94,110.38.7A99.54,99.54,0,0,0,47,14.25C18.06,31.47,2.63,57.33.27,90.6c-2,28.85,7.82,54.51,25.09,77.12,26.14,34.22,60.69,54.16,103.86,58.38,22.74,2.22,44.76-.67,65.88-9.69a79.54,79.54,0,0,0,10.58-5.1c10.08-6.08,18.3-15.54,17.06-17.22C222.12,193.26,218.84,193.9,207,200.51Z"/></g></g></svg>